<svg xmlns="http://www.w3.org/2000/svg" xmlns:xlink="http://www.w3.org/1999/xlink" version="1.1" x="0px" y="0px" width="100px" height="100px" viewBox="5.0 -10.0 100.0 135.0" enable-background="new 0 0 100 100" xml:space="preserve">
<g id="Layer_1">
	<polygon points="49.904,64.196 54.682,59.871 19.039,20.524 14.264,24.849 32.059,44.496 2.877,99.474 37.5,99.474 37.5,89.978    17.356,89.978 36.197,49.064  "/>
	<path id="path7240_15_" d="M53.855,17.991c-4.711-0.943-7.774-5.578-6.823-10.339c0.958-4.77,5.568-7.854,10.278-6.911   c4.721,0.946,7.769,5.561,6.814,10.333C63.173,15.833,58.574,18.935,53.855,17.991"/>
	<path d="M92.245,35.048L73.223,16.154c-1.227-1.308-2.712-1.965-4.463-1.965c-1.836,0-4.893,1.342-5.794,4.146l-4.189,14.982   l-2.392-7.801c-0.756-2.256-3.192-3.478-5.458-2.723c-2.262,0.755-3.479,3.198-2.726,5.457l6.298,18.832   c0.589,1.759,2.236,2.945,4.091,2.945c0.006,0,0.012,0,0.017,0c1.86-0.007,3.508-1.208,4.083-2.977l3.85-11.827l12.587,12.686   v44.479c0,2.012,0.702,3.694,2.1,5.056c1.398,1.352,3.103,2.029,5.115,2.029c1.926,0,3.588-0.678,4.986-2.029   c1.397-1.361,2.097-3.044,2.097-5.056V37.937C93.424,36.798,93.033,35.838,92.245,35.048z"/>
</g>
<g id="Layer_2">
</g>
</svg>